# Blender 3.4.0
# www.blender.org
o CollisionMesh
v 0.399821 0.567592 0.924177
v 0.393413 0.303289 0.924177
v -2.907106 0.303289 0.924177
v -2.907033 0.567592 0.924177
v -2.974937 0.646048 1.115428
v -2.974937 0.262468 1.115428
v -2.907033 0.646048 1.115428
v -2.907106 0.262468 1.115428
v -1.786221 0.303289 -0.924177
v -0.935409 0.567592 -0.924177
v -0.939260 0.303289 0.924177
v -0.939260 0.303289 -0.924177
v -1.786221 0.303289 0.924177
v -1.836213 0.057697 0.932054
v -0.894222 0.057703 0.887595
v 0.399821 0.567592 -0.924177
v 0.393413 0.303289 -0.924177
v -2.907106 0.303289 -0.924177
v -2.907033 0.567592 -0.924177
v -2.974937 0.646048 -1.115428
v -2.974937 0.262468 -1.115428
v -2.907033 0.646048 -1.115428
v -2.907106 0.262468 -1.115428
v -1.783996 0.567592 0.924177
v -0.935409 0.567592 0.924177
v -1.783996 0.567592 -0.924177
v -1.836213 0.057697 -0.932054
v -0.894222 0.057703 -0.887595
vn 1.0000 -0.0000 -0.0000
vn -0.0000 -0.0000 1.0000
vn -0.0000 1.0000 -0.0000
vn -0.0000 -1.0000 -0.0000
vn 1.0000 -0.0002 -0.0000
vn -0.0000 -0.0000 -1.0000
vn -1.0000 -0.0000 -0.0000
vn 0.9997 -0.0242 -0.0000
vn -0.9799 0.1995 -0.0000
vn 0.0248 -0.0586 -0.9980
vn 0.9836 0.1804 -0.0000
vn 0.0248 -0.0586 0.9980
vt 0.000000 0.000000
vt 0.000000 0.000000
vt 0.000000 0.000000
vt 0.000000 0.000000
vt 0.000000 0.000000
vt 0.000000 0.000000
vt 0.000000 0.000000
vt 0.000000 0.000000
vt 0.000000 0.000000
vt 0.000000 0.000000
vt 0.000000 0.000000
vt 0.000000 0.000000
vt 0.000000 0.000000
vt 0.000000 0.000000
vt 0.000000 0.000000
vt 0.000000 0.000000
vt 0.000000 0.000000
vt 0.000000 0.000000
vt 0.000000 0.000000
vt 0.000000 0.000000
vt 0.000000 0.000000
vt 0.000000 0.000000
vt 0.000000 0.000000
vt 0.000000 0.000000
vt 0.000000 0.000000
vt 0.000000 0.000000
vt 0.000000 0.000000
vt 0.000000 0.000000
s 0
f 22/22/1 7/7/1 4/4/1 19/19/1
f 8/8/2 7/7/2 5/5/2 6/6/2
f 20/20/3 5/5/3 7/7/3 22/22/3
f 24/24/3 26/26/3 19/19/3 4/4/3
f 13/13/4 3/3/4 18/18/4 9/9/4
f 23/23/5 22/22/5 19/19/5 18/18/5
f 7/7/5 8/8/5 3/3/5 4/4/5
f 23/23/6 21/21/6 20/20/6 22/22/6
f 23/23/4 8/8/4 6/6/4 21/21/4
f 20/20/7 21/21/7 6/6/7 5/5/7
f 23/23/1 18/18/1 3/3/1 8/8/1
f 13/13/2 24/24/2 4/4/2 3/3/2
f 26/26/6 9/9/6 18/18/6 19/19/6
f 10/10/6 12/12/6 9/9/6 26/26/6
f 2/2/8 17/17/8 16/16/8 1/1/8
f 11/11/2 25/25/2 24/24/2 13/13/2
f 27/27/4 28/28/4 15/15/4 14/14/4
f 9/9/9 27/27/9 14/14/9 13/13/9
f 9/9/10 12/12/10 28/28/10 27/27/10
f 28/28/11 12/12/11 11/11/11 15/15/11
f 13/13/12 14/14/12 15/15/12 11/11/12
f 25/25/3 10/10/3 26/26/3 24/24/3
f 1/1/3 16/16/3 10/10/3 25/25/3
f 2/2/2 1/1/2 25/25/2 11/11/2
f 2/2/4 11/11/4 12/12/4 17/17/4
f 16/16/6 17/17/6 12/12/6 10/10/6
